{
  "accessors": [
    {
      "bufferView": 2,
      "componentType": 5126,
      "count": 65532,
      "max": [
        0.42745101451873779,
        0.99215298891067505,
        0.19813300669193268
      ],
      "min": [
        -0.16684800386428833,
        -0.90577501058578491,
        -0.1935189962387085
      ],
      "type": "VEC3"
    },
    {
      "bufferView": 2,
      "byteOffset": 786384,
      "componentType": 5126,
      "count": 65532,
      "max": [
        0.99999618530273438,
        0.99981456995010376,
        0.99978655576705933
      ],
      "min": [
        -0.99999606609344482,
        -0.99978464841842651,
        -0.99998784065246582
      ],
      "type": "VEC3"
    },
    {
      "bufferView": 3,
      "componentType": 5126,
      "count": 65532,
      "max": [
        1,
        1,
        0.99999970197677612,
        1
      ],
      "min": [
        -1,
        -1,
        -1,
        -1
      ],
      "type": "VEC4"
    },
    {
      "bufferView": 1,
      "componentType": 5126,
      "count": 65532,
      "max": [
        0.9127659797668457,
        0.99975699186325073
      ],
      "min": [
        0.0015399999683722854,
        0.00024300000222865492
      ],
      "type": "VEC2"
    },
    {
      "bufferView": 0,
      "componentType": 5125,
      "count": 98298,
      "max": [
        65531
      ],
      "min": [
        0
      ],
      "type": "SCALAR"
    },
    {
      "bufferView": 2,
      "byteOffset": 1572768,
      "componentType": 5126,
      "count": 58500,
      "max": [
        0.42940101027488708,
        0.78438997268676758,
        0.14876499772071838
      ],
      "min": [
        -0.42940101027488708,
        -0.90795999765396118,
        -0.19467400014400482
      ],
      "type": "VEC3"
    },
    {
      "bufferView": 2,
      "byteOffset": 2274768,
      "componentType": 5126,
      "count": 58500,
      "max": [
        0.99998104572296143,
        0.9973832368850708,
        0.99999368190765381
      ],
      "min": [
        -0.99998104572296143,
        -0.99680995941162109,
        -0.99997854232788086
      ],
      "type": "VEC3"
    },
    {
      "bufferView": 3,
      "byteOffset": 1048512,
      "componentType": 5126,
      "count": 58500,
      "max": [
        1,
        1,
        0.99993622303009033,
        1
      ],
      "min": [
        -1,
        -1,
        -1,
        -1
      ],
      "type": "VEC4"
    },
    {
      "bufferView": 1,
      "byteOffset": 524256,
      "componentType": 5126,
      "count": 58500,
      "max": [
        0.9127659797668457,
        0.98762297630310059
      ],
      "min": [
        0.00024300000222865492,
        0.00024300000222865492
      ],
      "type": "VEC2"
    },
    {
      "bufferView": 0,
      "byteOffset": 393192,
      "componentType": 5125,
      "count": 87702,
      "max": [
        58499
      ],
      "min": [
        0
      ],
      "type": "SCALAR"
    },
    {
      "bufferView": 2,
      "byteOffset": 2976768,
      "componentType": 5126,
      "count": 32502,
      "max": [
        0.19758200645446777,
        1,
        0.17558300495147705
      ],
      "min": [
        -0.19887199997901917,
        0.3325049877166748,
        -0.18750299513339996
      ],
      "type": "VEC3"
    },
    {
      "bufferView": 2,
      "byteOffset": 3366792,
      "componentType": 5126,
      "count": 32502,
      "max": [
        0.99893605709075928,
        0.99990475177764893,
        0.99993801116943359
      ],
      "min": [
        -0.99893951416015625,
        -0.9999537467956543,
        -0.99987566471099854
      ],
      "type": "VEC3"
    },
    {
      "bufferView": 3,
      "byteOffset": 1984512,
      "componentType": 5126,
      "count": 32502,
      "max": [
        0.99999994039535522,
        0.9999997615814209,
        1,
        1
      ],
      "min": [
        -0.9999808669090271,
        -1,
        -0.99999988079071045,
        -1
      ],
      "type": "VEC4"
    },
    {
      "bufferView": 1,
      "byteOffset": 992256,
      "componentType": 5126,
      "count": 32502,
      "max": [
        0.45247599482536316,
        0.99992698431015015
      ],
      "min": [
        7.3000002885237336e-05,
        7.3000002885237336e-05
      ],
      "type": "VEC2"
    },
    {
      "bufferView": 0,
      "byteOffset": 744000,
      "componentType": 5125,
      "count": 48384,
      "max": [
        32501
      ],
      "min": [
        0
      ],
      "type": "SCALAR"
    },
    {
      "bufferView": 2,
      "byteOffset": 3756816,
      "componentType": 5126,
      "count": 65009,
      "max": [
        0.31226000189781189,
        -0.76496100425720215,
        0.071848101913928986
      ],
      "min": [
        -0.31580701470375061,
        -1,
        -0.19813300669193268
      ],
      "type": "VEC3"
    },
    {
      "bufferView": 2,
      "byteOffset": 4536924,
      "componentType": 5126,
      "count": 65009,
      "max": [
        0.99999582767486572,
        0.99998903274536133,
        0.99806714057922363
      ],
      "min": [
        -0.99997603893280029,
        -0.9999769926071167,
        -0.99999320507049561
      ],
      "type": "VEC3"
    },
    {
      "bufferView": 3,
      "byteOffset": 2504544,
      "componentType": 5126,
      "count": 65009,
      "max": [
        0.99999964237213135,
        1,
        1,
        1
      ],
      "min": [
        -0.9999997615814209,
        -0.99999988079071045,
        -1,
        -1
      ],
      "type": "VEC4"
    },
    {
      "bufferView": 1,
      "byteOffset": 1252272,
      "componentType": 5126,
      "count": 65009,
      "max": [
        0.88988298177719116,
        0.99987000226974487
      ],
      "min": [
        0.00013000000035390258,
        0.00013000000035390258
      ],
      "type": "VEC2"
    },
    {
      "bufferView": 0,
      "byteOffset": 937536,
      "componentType": 5125,
      "count": 96768,
      "max": [
        65008
      ],
      "min": [
        0
      ],
      "type": "SCALAR"
    }
  ],
  "asset": {
    "extras": {
      "author": "Ame Developer (https://sketchfab.com/myamegames)",
      "license": "CC-BY-NC-SA-4.0 (http://creativecommons.org/licenses/by-nc-sa/4.0/)",
      "source": "https://sketchfab.com/3d-models/girl-model-0dafcf6d81fc4ba1a4430e84b0aa2af5",
      "title": "GIRL MODEL"
    },
    "generator": "Sketchfab-7.98.1",
    "version": "2.0"
  },
  "bufferViews": [
    {
      "buffer": 0,
      "byteLength": 1324608,
      "byteOffset": 0,
      "name": "floatBufferViews",
      "target": 34963
    },
    {
      "buffer": 0,
      "byteLength": 1772344,
      "byteOffset": 1324608,
      "byteStride": 8,
      "name": "floatBufferViews",
      "target": 34962
    },
    {
      "buffer": 0,
      "byteLength": 5317032,
      "byteOffset": 3096952,
      "byteStride": 12,
      "name": "floatBufferViews",
      "target": 34962
    },
    {
      "buffer": 0,
      "byteLength": 3544688,
      "byteOffset": 8413984,
      "byteStride": 16,
      "name": "floatBufferViews",
      "target": 34962
    }
  ],
  "buffers": [
    {
      "byteLength": 11958672,
      "uri": "scene.bin"
    }
  ],
  "images": [
    {
      "uri": "textures/BASE3_baseColor.jpeg"
    },
    {
      "uri": "textures/BASE3_metallicRoughness.png"
    },
    {
      "uri": "textures/BASE3_normal.png"
    },
    {
      "uri": "textures/BASE2_baseColor.jpeg"
    },
    {
      "uri": "textures/BASE2_metallicRoughness.png"
    },
    {
      "uri": "textures/BASE2_normal.png"
    },
    {
      "uri": "textures/BASE1_baseColor.jpeg"
    },
    {
      "uri": "textures/BASE1_metallicRoughness.png"
    },
    {
      "uri": "textures/BASE1_normal.png"
    }
  ],
  "materials": [
    {
      "doubleSided": true,
      "emissiveFactor": [
        0,
        0,
        0
      ],
      "name": "BASE3",
      "normalTexture": {
        "index": 2,
        "scale": 1,
        "texCoord": 0
      },
      "pbrMetallicRoughness": {
        "baseColorFactor": [
          1,
          1,
          1,
          1
        ],
        "baseColorTexture": {
          "index": 0,
          "texCoord": 0
        },
        "metallicFactor": 1,
        "metallicRoughnessTexture": {
          "index": 1,
          "texCoord": 0
        },
        "roughnessFactor": 1
      }
    },
    {
      "doubleSided": true,
      "emissiveFactor": [
        0,
        0,
        0
      ],
      "name": "BASE2",
      "normalTexture": {
        "index": 5,
        "scale": 1,
        "texCoord": 0
      },
      "pbrMetallicRoughness": {
        "baseColorFactor": [
          1,
          1,
          1,
          1
        ],
        "baseColorTexture": {
          "index": 3,
          "texCoord": 0
        },
        "metallicFactor": 1,
        "metallicRoughnessTexture": {
          "index": 4,
          "texCoord": 0
        },
        "roughnessFactor": 1
      }
    },
    {
      "doubleSided": true,
      "emissiveFactor": [
        0,
        0,
        0
      ],
      "name": "BASE1",
      "normalTexture": {
        "index": 8,
        "scale": 1,
        "texCoord": 0
      },
      "pbrMetallicRoughness": {
        "baseColorFactor": [
          1,
          1,
          1,
          1
        ],
        "baseColorTexture": {
          "index": 6,
          "texCoord": 0
        },
        "metallicFactor": 1,
        "metallicRoughnessTexture": {
          "index": 7,
          "texCoord": 0
        },
        "roughnessFactor": 1
      }
    }
  ],
  "meshes": [
    {
      "name": "defaultMaterial",
      "primitives": [
        {
          "attributes": {
            "NORMAL": 1,
            "POSITION": 0,
            "TANGENT": 2,
            "TEXCOORD_0": 3
          },
          "indices": 4,
          "material": 2,
          "mode": 4
        }
      ]
    },
    {
      "name": "defaultMaterial",
      "primitives": [
        {
          "attributes": {
            "NORMAL": 6,
            "POSITION": 5,
            "TANGENT": 7,
            "TEXCOORD_0": 8
          },
          "indices": 9,
          "material": 2,
          "mode": 4
        }
      ]
    },
    {
      "name": "defaultMaterial",
      "primitives": [
        {
          "attributes": {
            "NORMAL": 11,
            "POSITION": 10,
            "TANGENT": 12,
            "TEXCOORD_0": 13
          },
          "indices": 14,
          "material": 1,
          "mode": 4
        }
      ]
    },
    {
      "name": "defaultMaterial",
      "primitives": [
        {
          "attributes": {
            "NORMAL": 16,
            "POSITION": 15,
            "TANGENT": 17,
            "TEXCOORD_0": 18
          },
          "indices": 19,
          "material": 0,
          "mode": 4
        }
      ]
    }
  ],
  "nodes": [
    {
      "children": [
        1
      ],
      "name": "RootNode (gltf orientation matrix)",
      "rotation": [
        -0.70710678118654746,
        -0,
        -0,
        0.70710678118654757
      ]
    },
    {
      "children": [
        2
      ],
      "name": "RootNode (model correction matrix)"
    },
    {
      "children": [
        3,
        6,
        8
      ],
      "matrix": [
        1,
        0,
        0,
        0,
        0,
        -4.3711390063094768e-08,
        0.999999999999999,
        0,
        0,
        -0.999999999999999,
        -4.3711390063094768e-08,
        0,
        0,
        0,
        0,
        1
      ],
      "name": "Collada visual scene group"
    },
    {
      "children": [
        4,
        5
      ],
      "name": "BASE1_Group32777"
    },
    {
      "mesh": 0,
      "name": "defaultMaterial"
    },
    {
      "mesh": 1,
      "name": "defaultMaterial"
    },
    {
      "children": [
        7
      ],
      "name": "BASE2_Group24675"
    },
    {
      "mesh": 2,
      "name": "defaultMaterial"
    },
    {
      "children": [
        9
      ],
      "name": "BASE3_Group60800"
    },
    {
      "mesh": 3,
      "name": "defaultMaterial"
    }
  ],
  "samplers": [
    {
      "magFilter": 9729,
      "minFilter": 9987,
      "wrapS": 10497,
      "wrapT": 10497
    }
  ],
  "scene": 0,
  "scenes": [
    {
      "name": "OSG_Scene",
      "nodes": [
        0
      ]
    }
  ],
  "textures": [
    {
      "sampler": 0,
      "source": 0
    },
    {
      "sampler": 0,
      "source": 1
    },
    {
      "sampler": 0,
      "source": 2
    },
    {
      "sampler": 0,
      "source": 3
    },
    {
      "sampler": 0,
      "source": 4
    },
    {
      "sampler": 0,
      "source": 5
    },
    {
      "sampler": 0,
      "source": 6
    },
    {
      "sampler": 0,
      "source": 7
    },
    {
      "sampler": 0,
      "source": 8
    }
  ]
}

